<svg width="32" height="32" viewBox="0 0 32 32" fill="none" xmlns="http://www.w3.org/2000/svg">
<path fill-rule="evenodd" clip-rule="evenodd" d="M11.6726 1.9823H20.3274C21.2846 1.9823 21.8828 2.42286 22.1221 3.30397L31.0162 28.8562C31.0428 28.9363 31.0561 29.0698 31.0561 29.2567C31.0561 29.4169 30.963 29.5905 30.7769 29.7774C30.6173 29.9376 30.4179 30.0177 30.1786 30.0177H22.8002C22.0025 30.0177 21.484 29.6839 21.2447 29.0164L20.474 26.888C20.362 26.5789 20.0694 26.3731 19.7419 26.3731H12.2582C11.9306 26.3731 11.638 26.5789 11.5261 26.888L10.7553 29.0164C10.516 29.6839 9.99754 30.0177 9.19987 30.0177H1.82141C1.60181 30.0177 1.40461 29.9502 1.22979 29.8153C1.19816 29.7909 1.1699 29.7623 1.14508 29.731C1.01101 29.5617 0.94397 29.4036 0.94397 29.2567C0.94397 29.0698 0.957264 28.9363 0.983853 28.8562L9.87789 3.30397C10.1172 2.42286 10.7154 1.9823 11.6726 1.9823ZM9.95865 16.8295C9.65444 16.524 9.65444 16.0287 9.95865 15.7233L11.4796 14.196C11.7838 13.8905 12.277 13.8905 12.5812 14.196L14.1021 15.7233C14.4063 16.0287 14.8995 16.0287 15.2038 15.7233L19.3472 11.5624C19.6514 11.257 20.1446 11.257 20.4489 11.5624L21.9698 13.0897C22.274 13.3952 22.274 13.8905 21.9698 14.196L15.2038 20.9903C14.8995 21.2958 14.4063 21.2958 14.1021 20.9903L9.95865 16.8295Z" fill="url(#paint0_linear_29_65)"/>
<defs>
<linearGradient id="paint0_linear_29_65" x1="16" y1="1.9823" x2="16" y2="30.0177" gradientUnits="userSpaceOnUse">
<stop stop-color="#F34213"/>
<stop offset="1" stop-color="#F5B700"/>
</linearGradient>
</defs>
</svg>
